<svg id="Logo" xmlns="http://www.w3.org/2000/svg" viewBox="0 0 958.4 309.86"><defs><style>.cls-1,.cls-3{fill:#272727;}.cls-1{stroke:#272727;stroke-miterlimit:10;stroke-width:4px;fill-rule:evenodd;}.cls-2{isolation:isolate;}</style></defs><g id="Logo_Group" data-name="Logo Group"><path id="Bildmarke" class="cls-1" d="M352,390.3h-1.77a11.69,11.69,0,0,1-11.63-11.36V366.13a10.85,10.85,0,0,1,3.64-8h0a13.49,13.49,0,0,1,17.7,0h0a10.9,10.9,0,0,1,3.67,8v12.81A11.71,11.71,0,0,1,352,390.3Zm48.58-215.69-133.42-66.7a58.27,58.27,0,0,0-51.14,0L82.55,174.61a28.64,28.64,0,0,0,0,51.14l38.86,19.43v64.27c0,36.81,52.79,65.56,120.2,65.56a217.3,217.3,0,0,0,46.11-4.82,11,11,0,0,0,8.6-13h0c-.05-.27-.13-.53-.2-.8h0a10.8,10.8,0,0,0-12.54-7.69,193.88,193.88,0,0,1-41.93,4.44c-58,0-98.34-23-98.34-43.7V256.11l72.75,36.39a57.23,57.23,0,0,0,51.14,0L302.28,275a10.9,10.9,0,0,0,4.92-14.62l0,0h0a10.9,10.9,0,0,0-14.62-4.91l-.05,0L257.42,273a35.93,35.93,0,0,1-31.63,0L92.37,206.25a6.74,6.74,0,0,1,0-12.08L225.8,127.46a35.93,35.93,0,0,1,31.63,0l133.4,66.71a6.74,6.74,0,0,1,0,12.08l-40.7,20.35-94.6-33.1a10.9,10.9,0,0,0-13.9,6.66l0,0h0a10.91,10.91,0,0,0,6.68,13.9h0L340,246.2v76.06a10.9,10.9,0,0,1-3.21,7.74l-12.56,12.56a20.81,20.81,0,0,0-6.14,14.7v40.91l6,3.07a57.26,57.26,0,0,0,53.46,0l6.06-3.07V357.26a20.76,20.76,0,0,0-6.14-14.7L364.9,330a11,11,0,0,1-3.19-7.74v-77l45.91-23a29.83,29.83,0,0,0-7.08-47.6Z" transform="translate(-64.8 -100)"/><g id="Wortmarke" class="cls-2"><path class="cls-3" d="M518.38,208.08c8.8-18.43,31.19-22.68,41.68-22.68,21,0,34.3,9.64,41.67,26.36,12.47-23,32.32-26.36,44.51-26.36,32.61,0,51,21.26,51,59V307.3a14.89,14.89,0,0,1-15,14.74c-7.94,0-14.18-6.81-14.18-14.74V246.91C668.07,226.22,657,214,640,214c-19.28,0-32,14.17-32,35.44V307.3a14.89,14.89,0,0,1-15,14.74c-7.93,0-14.17-6.81-14.17-14.74v-61c0-20.4-11.34-32.31-26.93-32.31-17,0-33.46,9.63-33.46,35.44V307.3a14.89,14.89,0,0,1-15,14.74c-7.94,0-14.18-6.81-14.18-14.74V201.55a14.88,14.88,0,0,1,15-14.73c7.94,0,14.17,6.8,14.17,14.73Z" transform="translate(-64.8 -100)"/><path class="cls-3" d="M844,300.92c-8.79,14.46-28.07,21.83-44.51,21.83-35.72,0-67.19-26.93-67.19-69.17s31.47-68.89,67.19-68.89c15.87,0,35.43,6.52,44.51,21.54v-5.38c0-7.94,6.23-14.74,14.17-14.74a14.89,14.89,0,0,1,15,14.74V306.59a14.89,14.89,0,0,1-15,14.74c-7.94,0-14.17-6.8-14.17-14.74Zm-41.11-6.52c21.54,0,40.82-15,40.82-41.1S822.71,213,802.86,213c-22.11,0-40.54,15.87-40.54,40.26S780.75,294.4,802.86,294.4Z" transform="translate(-64.8 -100)"/><path class="cls-3" d="M933.65,315.4c-4.54,6.24-12.76,7.65-19.56,4-6.52-3.68-7.66-12.75-3.41-19L949,247.64l-28.92-40a13.78,13.78,0,0,1,3.69-19.28,14.46,14.46,0,0,1,19.84,4l22.11,31.75,22.11-31.75a14.48,14.48,0,0,1,19.85-4,13.78,13.78,0,0,1,3.69,19.28l-28.92,40,38.27,52.73c4.25,6.24,3.12,15.31-3.4,19-6.81,3.69-15,2.28-19.56-4l-32-43.94Z" transform="translate(-64.8 -100)"/></g></g></svg>